<svg id="Capa_1" data-name="Capa 1" xmlns="http://www.w3.org/2000/svg" viewBox="0 0 512 512"><defs><style>.cls-1{fill:#a4ffbe;}</style></defs><path class="cls-1" d="M224.07,124.68a133.56,133.56,0,0,0-98.95,97.65c-11.57,47.32,1.93,95.63,36.11,129.22C173.79,363.89,181,382.32,181,402.09v30.56c0,45.47,33.24,79.35,75,79.35a75.08,75.08,0,0,0,75-75V402.13c0-19.54,7.58-38.34,20.77-51.56A133.15,133.15,0,0,0,391,256c0-85.15-78.79-151.64-166.93-131.32ZM256,482c-25.65,0-45-21.22-45-49.36V421h90v16a45.05,45.05,0,0,1-45,45Zm74.52-152.61A102.78,102.78,0,0,0,301.6,391H210.43c-2.39-23.57-12.36-45.31-28.18-60.85-27-26.49-37.16-63.19-28-100.7a103.33,103.33,0,0,1,76.56-75.54C299.62,138.05,361,189.37,361,256a103.35,103.35,0,0,1-30.48,73.38Z"/><path class="cls-1" d="M241,15V46a15,15,0,0,0,30,0V15a15,15,0,0,0-30,0Z"/><path class="cls-1" d="M61,256a15,15,0,0,0-15-15H15a15,15,0,0,0,0,30H46A15,15,0,0,0,61,256Z"/><path class="cls-1" d="M497,241H466a15,15,0,0,0,0,30h31a15,15,0,0,0,0-30Z"/><path class="cls-1" d="M66.64,348l-26,15a15,15,0,0,0,15,26l26-15a15,15,0,0,0-15-26Z"/><path class="cls-1" d="M456.35,123l-26,15a15,15,0,0,0,15,26l26-15a15,15,0,1,0-15-26Z"/><path class="cls-1" d="M363,40.65l-15,26a15,15,0,0,0,26,15l15-26a15,15,0,1,0-26-15Z"/><path class="cls-1" d="M138,81.64a15,15,0,0,0,26-15l-15-26a15,15,0,0,0-26,15Z"/><path class="cls-1" d="M471.35,363l-26-15a15,15,0,0,0-15,26l26,15a15,15,0,1,0,15-26Z"/><path class="cls-1" d="M81.64,138l-26-15a15,15,0,0,0-15,26l26,15a15,15,0,0,0,15-26Z"/><path class="cls-1" d="M256,196a45.05,45.05,0,0,0-45,45,15,15,0,0,0,30,0A15,15,0,1,1,261.55,255,32.43,32.43,0,0,0,241,285.24V286a15,15,0,0,0,30,0v-.76a2.62,2.62,0,0,1,1.65-2.42A45,45,0,0,0,256,196Z"/><circle class="cls-1" cx="256" cy="346" r="15"/></svg>