<?xml version="1.0" encoding="utf-8"?>
<!-- Generator: Adobe Illustrator 24.2.3, SVG Export Plug-In . SVG Version: 6.00 Build 0)  -->
<svg version="1.1" id="Layer_1" xmlns="http://www.w3.org/2000/svg" xmlns:xlink="http://www.w3.org/1999/xlink" x="0px" y="0px"
	 viewBox="0 0 512 512" style="enable-background:new 0 0 512 512;" xml:space="preserve">
<style type="text/css">
	.st0{fill:#B8B8FF;}
</style>
<path class="st0" d="M512,135.1v-18c0-19.2-9.2-37.3-24.8-48.5c2.2-4.9,3.4-10.3,3.4-15.7V38.6C490.6,17.3,473.3,0,452,0
	s-38.6,17.3-38.6,38.6v14.3c0,0.4,0,0.9,0,1.3c-111.5-86.9-272.4-67-359.3,44.5c-62.9,80.7-71.7,191-22.5,280.7
	c-6.6,7.1-10.2,16.4-10.2,26.1v14.3c0,5.4,1.1,10.8,3.4,15.8C9.2,446.7,0,464.8,0,484v18c0,5.5,4.5,10,10,10h100c5.5,0,10-4.5,10-10
	v-18c0-4-0.4-7.9-1.2-11.8c119.4,75.8,277.6,40.4,353.4-79c47.4-74.6,52.9-168.4,14.6-248.1H502C507.5,145.1,512,140.6,512,135.1
	L512,135.1z M433.4,38.6c0-10.3,8.3-18.6,18.6-18.6s18.6,8.3,18.6,18.6v14.3c0,10.3-8.3,18.6-18.6,18.6s-18.6-8.3-18.6-18.6V38.6z
	 M491.8,266c-2.3,55.2-24,107.9-61.3,148.7c-9-8.4-18.6-16.2-28.8-23.2c15.7-37.5,24.6-80.5,25.8-125.5H491.8z M81.5,97.3
	c5.7,5.3,11.6,10.3,17.7,15.1c-0.4,2.3-0.7,4.7-0.7,7.1v14.3c0,5.4,1.1,10.8,3.4,15.8c-15.6,11.2-24.8,29.3-24.8,48.5v18
	c0,4.9,3.6,9.1,8.4,9.9c-0.5,6.7-0.9,13.4-1.1,20.1H20.2C22.5,190.8,44.2,138.1,81.5,97.3z M152.6,84.1
	C178.2,47.1,211.4,24.7,246,21v124.7c-24-1-47.7-5.7-70.3-13.9v-12.5C175.7,104.2,166.6,90.3,152.6,84.1z M137.1,100.9
	c10.3,0,18.6,8.3,18.6,18.6v14.3c0,10.3-8.3,18.6-18.6,18.6c-10.3,0-18.6-8.3-18.6-18.6l0,0v-14.3
	C118.6,109.2,126.9,100.9,137.1,100.9z M114.6,165c13.4,9.7,31.6,9.7,45,0c10.9,7.4,17.5,19.8,17.5,33v8h-80v-8
	C97.2,184.8,103.7,172.5,114.6,165z M105.6,226h81.5c5.5,0,10-4.5,10-10v-18c0-16.9-7.1-33-19.7-44.4c22.2,7.2,45.2,11.3,68.5,12.2
	V246H104.5C104.7,239.3,105.1,232.6,105.6,226L105.6,226z M266,21c36,3.7,69.7,27.1,95.9,66.9c5.3,8.1,10.1,16.5,14.4,25.1
	c-33.5,19.8-71.4,31-110.3,32.8V21z M130.4,81.5C121.8,83,114,87.4,108.2,94c-4.3-3.5-8.6-7.1-12.6-10.9
	c20.8-19.3,44.8-34.7,71-45.5C152.6,50.5,140.4,65.3,130.4,81.5L130.4,81.5z M84.5,266c0.2,6.1,0.5,12.3,0.9,18.5
	c0.4,5.2,4.8,9.3,10,9.3c0.3,0,0.5,0,0.8,0c5.5-0.4,9.6-5.2,9.2-10.7c-0.4-5.6-0.7-11.3-0.8-17H246v80.2
	c-41.7,1.6-82.4,13.4-118.5,34.4c-1.6-4-3.1-8.1-4.6-12.2c-1.9-5.2-7.7-7.8-12.8-5.9c-5.1,1.9-7.7,7.4-6,12.6
	c2,5.6,4.1,11.1,6.3,16.4c-4.1,2.8-8.1,5.8-12.1,8.9c-2.8-21.1-22.2-36-43.3-33.2c-2.2,0.3-4.3,0.8-6.4,1.4
	C31.4,337,21.7,301.9,20.2,266H84.5z M384.6,380.6c-9.8-5.7-20.1-10.8-30.6-15.1c-3.8-1.6-7.5-3-11.4-4.4h49.1
	C389.6,367.8,387.2,374.3,384.6,380.6L384.6,380.6z M246,491c-43.7-4.5-83.8-38.3-110.3-92c33.5-19.9,71.4-31.2,110.3-32.8V491z
	 M266,491V366.2c38.9,1.5,76.9,12.8,110.4,32.7c-4.3,8.7-9.1,17.1-14.4,25.2C335.7,463.9,302,487.3,266,491z M386,341.1h-80v-8
	c0.1-13.2,6.6-25.5,17.5-33c13.4,9.7,31.6,9.7,45,0c10.9,7.4,17.5,19.8,17.5,33L386,341.1z M364.6,268.8c0,10.3-8.3,18.6-18.6,18.6
	s-18.6-8.3-18.6-18.6v-14.3c0-10.3,8.3-18.6,18.6-18.6s18.6,8.3,18.6,18.6V268.8z M310.8,284.6c-15.6,11.2-24.8,29.3-24.8,48.5v14.6
	c-6.6-0.8-13.3-1.3-20-1.5V266h41.4v2.9C307.4,274.3,308.6,279.6,310.8,284.6z M41.4,419.7v-14.3c0-10.3,8.3-18.6,18.6-18.6
	s18.6,8.3,18.6,18.6v14.3c0,10.3-8.3,18.6-18.6,18.6S41.4,430,41.4,419.7L41.4,419.7z M97.9,426.8c6.7-6,13.6-11.6,20.9-16.8
	c13.2,26.1,29.5,48,48,64.6c-25.7-10.5-49.3-25.4-69.7-44.1C97.5,429.3,97.7,428.1,97.9,426.8L97.9,426.8z M378.6,435.1
	c5.3-8.1,10.2-16.5,14.5-25.2c8.1,5.8,15.9,12.2,23.2,19c-20.7,19.2-44.7,34.6-70.9,45.4C358.2,462.7,369.3,449.5,378.6,435.1
	L378.6,435.1z M403,314.2c-4-11.9-11.6-22.3-21.8-29.6c2.2-4.9,3.4-10.3,3.4-15.7V266h22.9C407.1,282.2,405.6,298.3,403,314.2z
	 M383.6,246c-4.7-20.8-25.4-33.8-46.2-29c-14.5,3.3-25.7,14.6-29,29H266v-80.2c41.7-1.7,82.4-13.6,118.6-34.5
	c13.9,34.3,21.8,73.5,22.9,114.7H383.6z M394.1,101.4l-0.9,0.7c-4.4-8.6-9.2-17-14.5-25.1c-9.4-14.4-20.5-27.7-33.2-39.3
	c22.9,9.4,44.1,22.3,63,38.3C401.6,83,396.7,91.8,394.1,101.4L394.1,101.4z M100,492H20v-8c0.1-13.2,6.6-25.5,17.5-33
	c13.4,9.7,31.6,9.7,45,0c11,7.4,17.5,19.8,17.5,33V492z M491.8,246h-64.3c-0.7-34.2-6.4-68.2-16.7-100.9h53.5
	C480.9,176.3,490.3,210.7,491.8,246z M492,125.1h-80v-8c0.1-13.2,6.6-25.5,17.5-33c13.4,9.7,31.6,9.7,45,0
	c10.9,7.4,17.5,19.8,17.5,33L492,125.1z"/>
<path class="st0" d="M101.5,338.3c5.5,0,10-4.5,10-10s-4.5-10-10-10l0,0c-5.5,0-10,4.5-10,10S96,338.3,101.5,338.3z"/>
</svg>
