<?xml version="1.0" encoding="utf-8"?>
<!-- Generator: Adobe Illustrator 24.2.3, SVG Export Plug-In . SVG Version: 6.00 Build 0)  -->
<svg version="1.1" id="Capa_1" xmlns="http://www.w3.org/2000/svg" xmlns:xlink="http://www.w3.org/1999/xlink" x="0px" y="0px"
	 viewBox="0 0 512 512" style="enable-background:new 0 0 512 512;" xml:space="preserve">
<style type="text/css">
	.st0{fill:#85D3FF;}
</style>
<path class="st0" d="M457,80h-15V45c0-24.9-20.1-45-45-45s-45,20.1-45,45v12.3c0,15.6-10.4,29.3-25.4,33.7L312,95.1V95
	c0-8.3-6.7-15-15-15l0,0h-60c-8.3,0-15,6.7-15,15l0,0v67H45c-24.8,0-45,20.2-45,45v290c0,8.3,6.7,15,15,15c3,0,5.9-0.9,8.3-2.5
	L79.5,472H365c24.8,0,45-20.2,45-45V270h47c30.4,0,55-24.6,55-55v-80C512,104.6,487.4,80,457,80z M252,110h30v130h-30V110z M380,427
	c0,8.3-6.7,15-15,15l0,0H75c-3,0-5.9,0.9-8.3,2.5L30,469V207c0-8.3,6.7-15,15-15l0,0h177v63c0,8.3,6.7,15,15,15l0,0h60
	c7.6,0,14-5.7,14.9-13.3c13.6,8.7,29.3,13.3,45.4,13.3H380V427z M482,215c0,13.8-11.2,25-25,25h-99.7c-18.2,0-35.2-9.1-45.3-24.2
	v-89.4l22.9-6.5c27.8-8.1,47-33.5,47.1-62.5V45c0-8.3,6.7-15,15-15s15,6.7,15,15v50c0,8.3,6.7,15,15,15l0,0h30c13.8,0,25,11.2,25,25
	V215z"/>
<path class="st0" d="M75,282h100c8.3,0,15-6.7,15-15s-6.7-15-15-15H75c-8.3,0-15,6.7-15,15S66.7,282,75,282z"/>
<path class="st0" d="M335,312H75c-8.3,0-15,6.7-15,15s6.7,15,15,15h260c8.3,0,15-6.7,15-15S343.3,312,335,312z"/>
<path class="st0" d="M335,372H75c-8.3,0-15,6.7-15,15s6.7,15,15,15h260c8.3,0,15-6.7,15-15S343.3,372,335,372z"/>
</svg>
